<svg width="30" height="29" viewBox="0 0 30 29" fill="none" xmlns="http://www.w3.org/2000/svg">
<path d="M29.4731 11.1595L25.7194 8.10024V3.20756C25.7194 2.6566 25.271 2.20829 24.7201 2.20829H22.3582C21.8072 2.20829 21.3589 2.6566 21.3589 3.20756V4.5463L16.3432 0.458482C15.9804 0.162881 15.5022 0 14.9968 0C14.4933 0 14.0174 0.161881 13.6566 0.455938L0.526831 11.1595C-0.0697314 11.6455 -0.0339395 12.069 0.0404605 12.2781C0.114679 12.4868 0.353685 12.8369 1.12003 12.8369H2.9179V26.9126C2.9179 27.9172 3.73293 28.7343 4.73475 28.7343H10.4124C11.4058 28.7343 12.1838 27.9341 12.1838 26.9126V21.1404C12.1838 20.6457 12.6385 20.1952 13.1377 20.1952H16.9531C17.4289 20.1952 17.8161 20.6192 17.8161 21.1404V26.9126C17.8161 27.9001 18.6689 28.7343 19.6783 28.7343H25.2651C26.267 28.7343 27.082 27.9171 27.082 26.9126V12.8369H28.8799C29.6462 12.8369 29.8851 12.4868 29.9594 12.2781C30.0338 12.069 30.0696 11.6456 29.4731 11.1595Z" fill="white"/>
</svg>
